<svg width="230" height="98" viewBox="0 0 230 98" fill="none" xmlns="http://www.w3.org/2000/svg">
<g clip-path="url(#clip0_1_2)">
<path d="M15.6 78.64C12.24 78.64 9.12 77.9467 6.24 76.56C3.36 75.12 1.04 73.12 -0.72 70.56L3.92 65.12C7.01333 69.5467 10.9067 71.76 15.6 71.76C18.7467 71.76 21.12 70.8 22.72 68.88C24.3733 66.96 25.2 64.1333 25.2 60.4V28.96H4.96V22H33.12V60C33.12 66.1867 31.6267 70.8533 28.64 74C25.7067 77.0933 21.36 78.64 15.6 78.64ZM65.7356 78.64C61.5223 78.64 57.4423 78 53.4956 76.72C49.6023 75.3867 46.5356 73.68 44.2956 71.6L47.2556 65.36C49.389 67.28 52.109 68.8533 55.4156 70.08C58.7756 71.2533 62.2156 71.84 65.7356 71.84C70.3756 71.84 73.8423 71.0667 76.1356 69.52C78.429 67.92 79.5756 65.8133 79.5756 63.2C79.5756 61.28 78.9356 59.7333 77.6556 58.56C76.429 57.3333 74.8823 56.4 73.0156 55.76C71.2023 55.12 68.6156 54.4 65.2556 53.6C61.0423 52.5867 57.629 51.5733 55.0156 50.56C52.4556 49.5467 50.2423 48 48.3756 45.92C46.5623 43.7867 45.6556 40.9333 45.6556 37.36C45.6556 34.3733 46.429 31.68 47.9756 29.28C49.5756 26.88 51.9756 24.96 55.1756 23.52C58.3756 22.08 62.349 21.36 67.0956 21.36C70.4023 21.36 73.6556 21.7867 76.8556 22.64C80.0556 23.4933 82.8023 24.72 85.0956 26.32L82.4556 32.72C80.109 31.2267 77.6023 30.1067 74.9356 29.36C72.269 28.56 69.6556 28.16 67.0956 28.16C62.5623 28.16 59.149 28.9867 56.8556 30.64C54.6156 32.2933 53.4956 34.4267 53.4956 37.04C53.4956 38.96 54.1356 40.5333 55.4156 41.76C56.6956 42.9333 58.269 43.8667 60.1356 44.56C62.0556 45.2 64.6423 45.8933 67.8956 46.64C72.109 47.6533 75.4956 48.6667 78.0556 49.68C80.6156 50.6933 82.8023 52.24 84.6156 54.32C86.4823 56.4 87.4156 59.2 87.4156 62.72C87.4156 65.6533 86.6156 68.3467 85.0156 70.8C83.4156 73.2 80.989 75.12 77.7356 76.56C74.4823 77.9467 70.4823 78.64 65.7356 78.64ZM143.788 78.64C136.321 78.64 130.508 76.5067 126.348 72.24C122.188 67.9733 120.108 61.84 120.108 53.84V22H128.108V53.52C128.108 65.52 133.361 71.52 143.868 71.52C148.988 71.52 152.908 70.0533 155.628 67.12C158.348 64.1333 159.708 59.6 159.708 53.52V22H167.468V53.84C167.468 61.8933 165.388 68.0533 161.228 72.32C157.068 76.5333 151.254 78.64 143.788 78.64ZM218.288 78L201.488 54.88L184.928 78H175.728L196.768 49.28L177.008 22H186.128L201.808 43.52L217.328 22H226.048L206.288 49.04L227.488 78H218.288Z" fill="white"/>
</g>
<defs>
<clipPath id="clip0_1_2">
<rect width="230" height="98" fill="white"/>
</clipPath>
</defs>
</svg>
